<svg xmlns="http://www.w3.org/2000/svg" viewBox="-24 -24 606 348" width="606" height="348">
  <defs>
    <linearGradient id="gold" x1="0" y1="0" x2="0" y2="1">
      <stop offset="0" stop-color="#6b4d16"></stop><stop offset="0.18" stop-color="#a9822c"></stop>
      <stop offset="0.44" stop-color="#f6e39a"></stop><stop offset="0.52" stop-color="#fffdf3"></stop>
      <stop offset="0.62" stop-color="#e9c65c"></stop><stop offset="0.84" stop-color="#9c7623"></stop>
      <stop offset="1" stop-color="#5f430f"></stop>
    </linearGradient>
  </defs>
  <g transform="translate(-10.62,257.80) scale(1.1710,1.1710)"><path d="M214.45-102.69L198.93-83.79Q197.61-82.47 196.14-82.47L196.14-82.47Q193.95-82.47 192.11-85.18Q190.28-87.89 188.96-89.36L188.96-89.36Q176.66-101.66 167.72-94.34L167.72-94.34Q165.97-93.16 167.14-91.11L167.14-91.11Q173.29-81.59 177.39-72.95L177.39-72.95Q186.18-53.76 183.62-34.28Q181.05-14.79 170.36 0.73Q159.67 16.26 142.60 26.15Q125.54 36.04 105.32 36.04L105.32 36.04Q79.39 36.04 60.64 23.80Q41.89 11.57 40.28-11.28L40.28-11.28L42.92-23.29Q44.24-29.30 46.14-35.16L46.14-35.16Q51.42-50.24 44.82-55.52L44.82-55.52Q41.16-58.45 36.47-58.45L36.47-58.45Q32.08-58.59 32.08-62.04Q32.08-65.48 36.47-65.63L36.47-65.63Q40.14-65.63 44.38-64.75Q48.63-63.87 52.29-63.28L52.29-63.28Q67.97-59.91 76.61-50.61Q85.25-41.31 79.25-20.21L79.25-20.21Q73.54-0.73 77.71 12.74Q81.88 26.22 104.74 27.54L104.74 27.54Q124.80 28.42 135.94 16.26Q147.07 4.10 150-15.67L150-15.67Q152.05-29.44 143.99-46.44Q135.94-63.43 122.46-80.57L122.46-80.57Q91.85-119.24 98.29-135.57Q104.74-151.90 126.71-171.39L126.71-171.39L126.71-171.53Q127.44-172.27 129.05-172.27L129.05-172.27Q132.71-172.27 132.71-168.75L132.71-168.75Q132.71-167.29 131.40-165.97L131.40-165.97Q118.95-152.78 130.08-139.45L130.08-139.45Q137.99-129.79 145.68-120.34Q153.37-110.89 159.96-101.66L159.96-101.66Q161.87-99.32 163.92-101.51L163.92-101.51Q170.07-109.28 176.37-116.97Q182.67-124.66 189.11-132.57L189.11-132.57Q191.75-135.79 194.82-133.30L194.82-133.30Q200.10-128.91 205.15-124.44Q210.21-119.97 215.48-115.58L215.48-115.58Q216.80-114.55 218.41-113.09Q220.02-111.62 220.02-110.01L220.02-110.01Q220.02-108.69 218.04-106.57Q216.06-104.44 214.45-102.69L214.45-102.69ZM99.32-85.40L99.32-85.40Q70.17-72.36 42.48-83.94L42.48-83.94Q14.50-95.65 9.81-129.35Q5.13-163.04 29.88-191.60Q54.64-220.17 98.88-220.17L98.88-220.17Q119.68-220.17 140.77-213.28Q161.87-206.40 183.40-194.97L183.40-194.97Q197.61-187.50 211.23-192.19L211.23-192.19Q214.16-193.36 215.63-193.80L215.63-193.80Q218.85-194.38 219.65-192.04Q220.46-189.70 216.94-186.91L216.94-186.91Q206.40-179.30 195.70-171.90Q185.01-164.50 174.76-156.59L174.76-156.59Q171.09-153.66 166.70-156.45L166.70-156.45Q153.52-166.11 130.30-176.66Q107.08-187.21 83.35-187.21L83.35-187.21Q55.52-187.21 37.87-171.39Q20.21-155.57 21.02-131.03Q21.83-106.49 42.48-92.87Q63.13-79.25 95.36-91.85L95.36-91.85Q98.00-92.87 99.76-92.36Q101.51-91.85 102.17-90.60Q102.83-89.36 102.17-87.82Q101.51-86.28 99.32-85.40Z" fill="url(#gold)"></path></g>
  <g transform="translate(276.55,295.12) scale(1.0800,1.3590)"><path d="M56.69-41.89L56.69-41.89Q55.37-41.16 53.98-40.50Q52.59-39.84 51.56-39.40L51.56-39.40Q50.68-38.96 50.10-38.96L50.10-38.96Q46.88-38.96 46.88-42.33L46.88-42.33Q46.88-44.09 48.49-45.12L48.49-45.12Q71.63-57.86 95.43-76.03Q119.24-94.19 119.09-125.54L119.09-125.54Q118.95-145.17 105.91-165.97Q92.87-186.77 66.36-186.77L66.36-186.77Q48.34-186.77 32.96-174.10Q17.58-161.43 17.58-145.75L17.58-145.75Q17.58-129.49 26.95-117.33Q36.33-105.18 56.98-102.10L56.98-102.10Q73.54-101.66 83.64-108.98L83.64-108.98Q84.96-110.01 86.79-112.13Q88.62-114.26 90.38-114.26L90.38-114.26Q92.58-114.26 93.16-112.35Q93.75-110.45 92.43-109.13L92.43-109.13Q89.06-105.47 82.91-101.66L82.91-101.66Q73.24-95.51 60.79-95.51L60.79-95.51Q27.54-95.07 14.79-111.84Q2.05-128.61 4.54-154.98Q7.03-181.35 28.64-199.80Q50.24-218.26 78.52-217.09L78.52-217.09Q102.69-216.06 117.19-206.69Q131.69-197.31 139.31-183.11L139.31-183.11Q140.04-181.49 141.65-181.79L141.65-181.79Q143.41-181.79 143.70-183.54L143.70-183.54Q147.80-198.34 159.16-207.42Q170.51-216.50 188.09-216.50L188.09-216.50Q204.93-216.50 217.53-205.74Q230.13-194.97 235.84-170.80L235.84-170.80Q240.09-154.83 247.71-155.13L247.71-155.13Q250.78-155.13 251.29-152.71Q251.81-150.29 248.88-148.83L248.88-148.83L215.77-133.45Q214.16-132.57 214.45-130.96L214.45-130.96Q214.60-129.35 216.36-128.91L216.36-128.91Q233.79-124.95 247.05-109.94Q260.30-94.92 260.30-73.39L260.30-73.39Q259.72-39.55 215.77-13.62L215.77-13.62Q191.60 0.44 169.19 2.93Q146.78 5.42 127.00-1.46L127.00-1.46Q104.44-9.38 88.40-28.05Q72.36-46.73 56.69-41.89ZM153.66-111.04L153.66-111.04L210.79-137.99Q212.11-139.01 212.11-140.04L212.11-140.04Q212.11-141.50 210.94-142.24L210.94-142.24Q200.98-148.10 196.00-167.58L196.00-167.58Q192.04-181.93 186.04-190.87Q180.03-199.80 168.46-198.63L168.46-198.63Q152.93-195.12 150.22-181.93Q147.51-168.75 149.41-151.90L149.41-151.90Q152.64-124.80 134.18-102.91Q115.72-81.01 95.07-65.77L95.07-65.77Q108.25-65.92 122.46-52.29L122.46-52.29Q132.42-42.48 143.19-34.13Q153.96-25.78 165.97-20.21L165.97-20.21Q181.05-13.04 196.14-14.72Q211.23-16.41 222.07-30.47L222.07-30.47Q229.98-40.72 230.20-54.42Q230.42-68.12 219.95-82.03Q209.47-95.95 193.87-101.07Q178.27-106.20 154.98-104.74L154.98-104.74Q151.76-104.59 151.25-107.15Q150.73-109.72 153.66-111.04Z" fill="url(#gold)"></path></g>
</svg>